<svg id="Layer_1" data-name="Layer 1" xmlns="http://www.w3.org/2000/svg" viewBox="0 0 1000 300"><defs><style>.cls-1{fill:#1d1d1d;}.cls-2{fill:#0055a6;}.cls-3{fill:#194284;}.cls-4{fill:#ee4135;}.cls-5{fill:#d92c29;}.cls-6{fill:#ccc;}.cls-7{fill:#e6e6e6;}.cls-8{fill:gray;}</style></defs><path class="cls-1" d="M313.18,138.37h18.61c5,0,8.93,1.44,11.43,3.87a9.74,9.74,0,0,1,2.81,7v.12c0,5.68-3.5,8.62-6.93,10.12,5.18,1.56,9.36,4.56,9.36,10.55v.13c0,7.49-6.3,11.92-15.86,11.92H313.18ZM331,157.86c5.93,0,10-2.69,10-7.81v-.13c0-4.31-3.43-7.12-9.68-7.12h-13.3v15.06Zm1.75,19.79c6.62,0,10.74-2.93,10.74-7.8v-.13c0-4.75-4-7.49-11.62-7.49h-13.8v15.42Z"/><path class="cls-1" d="M362,138.37h31.6v4.5H367v14.92H390.8v4.5H367v15.3h27v4.49H362Z"/><path class="cls-1" d="M404.73,175.71l3-3.62c4.56,4.12,8.93,6.18,15,6.18,5.87,0,9.74-3.12,9.74-7.43v-.12c0-4.06-2.18-6.37-11.36-8.31-10.06-2.18-14.68-5.43-14.68-12.61v-.13c0-6.87,6.06-11.92,14.37-11.92a22.81,22.81,0,0,1,15.36,5.37l-2.87,3.81a19.21,19.21,0,0,0-12.62-4.75c-5.68,0-9.3,3.12-9.3,7.06v.12c0,4.12,2.24,6.43,11.86,8.5s14.24,5.68,14.24,12.36v.12c0,7.5-6.24,12.37-14.92,12.37A25.53,25.53,0,0,1,404.73,175.71Z"/><path class="cls-1" d="M461.93,142.93H447.25v-4.56H481.6v4.56H466.92v39.15h-5Z"/><path class="cls-1" d="M515.13,160.35v-.12c0-12,9-22.61,22.35-22.61s22.23,10.43,22.23,22.48v.13c0,12.05-9.05,22.6-22.35,22.6S515.13,172.41,515.13,160.35Zm39.46,0v-.12c0-9.93-7.24-18-17.23-18s-17.11,8-17.11,17.92v.13c0,9.93,7.24,18,17.23,18S554.59,170.28,554.59,160.35Z"/><path class="cls-1" d="M573.89,138.37H605.3v4.56H578.82v15.61h23.67V163H578.82v19h-4.93Z"/><path class="cls-1" d="M641.08,138.37h31.41v4.56H646v15.61h23.67V163H646v19h-4.93Z"/><path class="cls-1" d="M685.79,138.37h18.79c5.37,0,9.68,1.62,12.43,4.37a12.09,12.09,0,0,1,3.37,8.62v.13c0,7.24-5,11.49-11.86,12.73l13.42,17.86h-6.05l-12.68-17H690.72v17h-4.93Zm18.36,22.3c6.55,0,11.24-3.38,11.24-9v-.12c0-5.37-4.12-8.62-11.18-8.62H690.72v17.74Z"/><path class="cls-1" d="M750.85,138.06h4.63l19.92,44h-5.31L765,170.53H741.18L736,182.08h-5.06Zm12.18,28-9.93-22.3-10,22.3Z"/><path class="cls-1" d="M787.76,138.37h4.62l27.54,35v-35h4.81v43.71h-3.94l-28.22-35.84v35.84h-4.81Z"/><path class="cls-1" d="M838.9,160.35v-.12c0-12.37,9.24-22.61,22.11-22.61,7.93,0,12.67,2.81,17,6.93l-3.37,3.63c-3.68-3.5-7.8-6-13.74-6-9.68,0-16.92,7.87-16.92,17.92v.13c0,10.11,7.31,18,16.92,18,6,0,9.93-2.31,14.12-6.3l3.25,3.18c-4.56,4.62-9.56,7.68-17.49,7.68C848.21,182.83,838.9,172.9,838.9,160.35Z"/><path class="cls-1" d="M890.67,138.37h31.59v4.5H895.6v14.92h23.85v4.5H895.6v15.3h27v4.49H890.67Z"/><path class="cls-2" d="M190.9,44.63s.24-6-3.88-4.69-13.1,37.94-20.72,58.41S156,140.73,124.72,147.71s-34.44-.63-41.11,3.33-11.19,13.42,4,30.79,46.42,32.38,66.66,18.81,24.68-43.88,27.85-70.86S190.9,44.63,190.9,44.63Z"/><circle class="cls-3" cx="125.99" cy="110.89" r="20"/><path class="cls-4" d="M201.06,60.86s-.18-4.45,2.91-3.5,9.8,28.38,15.5,43.7,7.72,31.71,31.12,36.94,25.77-.48,30.75,2.49,8.38,10-3,23-34.74,24.23-49.88,14.07-18.47-32.84-20.85-53S201.06,60.86,201.06,60.86Z"/><circle class="cls-5" cx="247.85" cy="115.32" r="10.8"/><circle class="cls-6" cx="200.42" cy="247.45" r="12.78"/><path class="cls-7" d="M163.28,215.72s12.82-26.72,40.6-27.79,68.93,21.2,73.56,33.31-4.1,22.08-22.8,19.41S212.25,217,196.4,217.14,171.3,240.75,163.1,235C155.8,229.79,163.28,215.72,163.28,215.72Z"/><path class="cls-3" d="M190,53.69c.54-5.6.87-9.07.87-9.07s.24-5.95-3.88-4.68-13.1,37.94-20.72,58.41S156,140.73,124.72,147.71C172.37,141,188,64.82,190,53.69Z"/><path class="cls-6" d="M162,218.47c-1.76,4.36-4.22,12.74,1.07,16.48,8.2,5.8,17.45-17.63,33.3-17.81,10.07-.11,23.3,8.32,36.41,15.18-4.8-2.69-10.53-6.22-17.35-10.91C194.16,206.8,174.22,207.17,162,218.47Z"/><path class="cls-5" d="M276.18,139.78v-.08c-3.93.45-10.23,1.73-25.58-1.7-23.4-5.23-25.42-21.62-31.12-36.94S207.06,58.31,204,57.36s-2.91,3.5-2.91,3.5,1.1,11.45,2.48,25.33c2.66,14.65,7.27,32,16.51,43.2C247,161.93,276.18,139.78,276.18,139.78Z"/><path class="cls-8" d="M400.82,200.75H388v7.17h11.46v2.16H388v7.35h13v2.16H385.64v-21h15.18Z"/><path class="cls-8" d="M422.12,219.59l-6.72-9-6.72,9H406L414,208.88l-7.77-10.29H409l6.45,8.58,6.39-8.58h2.76l-7.77,10.26,8.07,10.74Z"/><path class="cls-8" d="M438.56,212.18h-5.1v7.41h-2.37v-21H439c4.74,0,7.86,2.52,7.86,6.69C446.81,209.84,443,212.18,438.56,212.18Zm.21-11.4h-5.31V210h5.19c3.48,0,5.76-1.86,5.76-4.65C444.41,202.34,442.16,200.78,438.77,200.78Z"/><path class="cls-8" d="M468.11,200.75H455.3v7.17h11.46v2.16H455.3v7.35h13v2.16H452.93v-21h15.18Z"/><path class="cls-8" d="M489.29,219.59l-6.09-8.16h-6v8.16h-2.37v-21h9c4.62,0,7.59,2.49,7.59,6.27,0,3.51-2.4,5.55-5.7,6.15l6.45,8.58Zm-5.61-18.81H477.2v8.52h6.45c3.15,0,5.4-1.62,5.4-4.35S487.07,200.78,483.68,200.78Z"/><path class="cls-8" d="M500.9,198.59v21h-2.37v-21Z"/><path class="cls-8" d="M524,200.75H511.22v7.17h11.46v2.16H511.22v7.35h13v2.16H508.85v-21H524Z"/><path class="cls-8" d="M546.2,198.59h2.31v21h-1.89l-13.56-17.22v17.22h-2.31v-21H533l13.23,16.83Z"/><path class="cls-8" d="M565.85,220a10.86,10.86,0,0,1,.09-21.72,10.93,10.93,0,0,1,8.19,3.33l-1.62,1.74a9.13,9.13,0,0,0-6.6-2.88c-4.65,0-8.13,3.75-8.13,8.64s3.51,8.7,8.13,8.7c2.88,0,4.77-1.11,6.78-3l1.56,1.53A10.93,10.93,0,0,1,565.85,220Z"/><path class="cls-8" d="M595.37,200.75H582.56v7.17H594v2.16H582.56v7.35h13v2.16H580.19v-21h15.18Z"/><path class="cls-8" d="M620.84,219.59h-2.4V200.78h-7.05v-2.19h16.5v2.19h-7Z"/><path class="cls-8" d="M648.59,219.59l-6.09-8.16h-6v8.16h-2.37v-21h9c4.62,0,7.59,2.49,7.59,6.27,0,3.51-2.4,5.55-5.7,6.15l6.45,8.58ZM643,200.78H636.5v8.52H643c3.15,0,5.4-1.62,5.4-4.35S646.37,200.78,643,200.78Z"/><path class="cls-8" d="M674.78,210.62c0,6.12-3.51,9.3-8.76,9.3s-8.73-3.18-8.73-9.12V198.59h2.37v12.06c0,4.53,2.4,7.08,6.42,7.08,3.87,0,6.33-2.34,6.33-6.93V198.59h2.37Z"/><path class="cls-8" d="M697.37,200.75H684.56v7.17H696v2.16H684.56v7.35h13v2.16H682.19v-21h15.18Z"/><path class="cls-8" d="M730,200.78H717.25v7.5h11.37v2.16H717.25v9.15h-2.37v-21H730Z"/><path class="cls-8" d="M750.82,219.59l-6.09-8.16h-6v8.16h-2.37v-21h9c4.62,0,7.59,2.49,7.59,6.27,0,3.51-2.4,5.55-5.7,6.15l6.45,8.58Zm-5.61-18.81h-6.48v8.52h6.45c3.15,0,5.4-1.62,5.4-4.35S748.6,200.78,745.21,200.78Z"/><path class="cls-8" d="M779.41,219.59h-2.55L774.4,214H763l-2.49,5.55h-2.43l9.57-21.15h2.22ZM768.7,201.2l-4.8,10.71h9.57Z"/><path class="cls-8" d="M800.8,198.59h2.31v21h-1.89l-13.56-17.22v17.22h-2.31v-21h2.22l13.23,16.83Z"/><path class="cls-8" d="M820.45,220a10.86,10.86,0,0,1,.09-21.72,10.93,10.93,0,0,1,8.19,3.33l-1.62,1.74a9.13,9.13,0,0,0-6.6-2.88c-4.65,0-8.13,3.75-8.13,8.64s3.51,8.7,8.13,8.7c2.88,0,4.77-1.11,6.78-3l1.56,1.53A10.93,10.93,0,0,1,820.45,220Z"/><path class="cls-8" d="M850,200.75H837.16v7.17h11.46v2.16H837.16v7.35h13v2.16H834.79v-21H850Z"/></svg>