<?xml version="1.0" encoding="utf-8"?>
<!-- Generator: Adobe Illustrator 26.0.3, SVG Export Plug-In . SVG Version: 6.00 Build 0)  -->
<svg version="1.1" id="Layer_1" xmlns:svgjs="http://svgjs.com/svgjs"
	 xmlns="http://www.w3.org/2000/svg" xmlns:xlink="http://www.w3.org/1999/xlink" x="0px" y="0px" viewBox="0 0 512 512"
	 style="enable-background:new 0 0 512 512;" xml:space="preserve">
<style type="text/css">
	.st0{fill:#1D1D1D;}
</style>
<g>
	<path class="st0" d="M464.7,386.6c5.1-16.3,8.4-33.8,9.7-50.7c10.9-10,16.6-23.2,16.3-38.8c-0.6-30.9-12.8-60.8-23.7-81.3
		c3.5-11.1,3.5-22.8-0.2-34.7c-9.9-32.2-30.1-53.9-55.5-78.9l-0.5-0.5c-25.3-24.3-48.9-45.2-81.8-54.8c-11.9-3.5-23.6-3.2-34.7,0.6
		c-26.7-14-55.7-21.6-82-21.4c-15.6,0.1-28.7,6.1-38.4,17.3c-16.9,1.7-34.3,5.5-50.4,11.1c-9.2,3.2-55.7,20.4-69.3,50
		c-4.6,10-4.9,20.2-1,30.2c1.9,4.8,4.7,8.8,8.1,12.1c15.9,15.5,46,16.7,69,17.6c5.7,0.2,11.1,0.5,15.3,0.9c9.5,1,17.4,1.9,24.5,2.8
		c3.9,7.5,8.5,14,13.6,18.9c2.1,2,4.2,3.8,6.4,5.3c12.7,8.7,26.1,16.9,39,24.8l3.3,2c6.3,12.2,14.6,20.7,23.5,29.6
		c1.9,1.9,3.9,3.9,5.9,6c0.1,0.1,0.1,0.1,0.2,0.2c0.1,0.1,0.1,0.1,0.2,0.2c2.2,2.1,4.3,4,6.4,6c8.7,8.2,16.3,15.4,28.6,21.1
		c8.6,13.8,18,27.8,28,41.6c1.6,2.2,3.4,4.2,5.4,6.2c5.1,4.9,11.6,9.4,19.2,13.1c1.1,7.1,2.2,15,3.5,24.4c0.1,1.1,0.3,2.2,0.4,3.4
		c0.2,1.8,1,3.5,2.2,4.7c1.5,1.5,3.7,2.3,6,2.1c4.2-0.4,7.2-4.1,6.8-8.3c-0.1-1.4-0.3-2.6-0.4-3.9c-0.8-5.9-1.5-11.2-2.2-16.1
		c4.4,1.4,8.9,2.5,13.7,3.5c24.2,4.9,49.4,3.9,69.2-2.7c3.2-1.1,6.3-2.3,9.2-3.7c-1.6,12-4.2,24.1-7.8,35.6
		c-5.7,18.3-20.7,51.9-40.4,61.6c-6.1,3-12.1,3.4-18.3,1.1c-10.5-3.8-16.9-16.7-19.9-40.6c-0.5-4.1-4.3-7.1-8.4-6.5
		c-4.1,0.5-7.1,4.3-6.5,8.5c1.9,14.7,5.8,33.7,17.5,45.2c3.4,3.3,7.4,5.9,12.2,7.7c10.2,3.7,20.3,3.1,30.2-1.8
		C445.9,442.9,461.8,395.9,464.7,386.6z M147.1,150.2c-4.6-0.5-10.3-0.7-16.2-1c-22.5-0.9-56.6-2.3-63.7-20.2
		c-2.4-6.2-2.2-12.2,0.6-18.4c9.2-19.9,42.4-35.8,60.5-42.1c11.4-3.9,23.4-6.9,35.3-8.8c-1.3,2.9-2.4,6-3.4,9.3
		c-6.1,20-6.4,45.2-0.9,69.3c1.1,4.7,2.4,9.3,3.9,13.6C158.4,151.4,153.1,150.8,147.1,150.2z M305.5,269.3c-0.1-0.1-0.2-0.1-0.4-0.1
		c-0.2-0.1-0.4-0.2-0.6-0.2c-10.7-4.7-17.3-10.9-25.6-18.8c-2-1.9-4.1-3.9-6.4-6c-2-2.1-4-4.1-5.9-6c-8.6-8.7-16.1-16.2-21.3-26.8
		c-0.1-0.1-0.1-0.3-0.2-0.4v-0.1c-9.9-21.1-6-63.3,9.3-98.5c1.7-3.8-0.1-8.3-3.9-9.9c-3.8-1.7-8.3,0.1-9.9,3.9
		c-13.2,30.6-18.5,65.4-14.7,91.1c-9.2-5.7-18.5-11.5-27.3-17.6c-1.6-1.1-3.1-2.3-4.5-3.7c-19.7-19.2-29.6-68.8-19.3-102.5
		c4.5-14.7,14.7-32.3,37.6-32.4c20.8-0.1,43.6,5.1,65.3,15c-6.5,4.6-12.6,10.6-18.3,17.8c-2.6,3.3-2,8,1.3,10.6s8,2,10.6-1.3
		c7.7-9.8,15.9-16.6,24.5-20.3c0.6-0.2,1.1-0.4,1.7-0.7c8.7-3.4,17.9-3.7,27.4-1c29.7,8.7,50.9,27.5,75.6,51.3l0.3,0.3
		c23.9,23.5,42.8,43.8,51.7,72.6c2.9,9.5,2.8,18.7-0.4,27.6c-0.2,0.3-0.3,0.7-0.4,1c-3.2,8.2-8.9,16-17.3,23.5
		C405.4,263.4,339.4,283.2,305.5,269.3z M444.2,335.9c-35.8,12-90.7,1.2-106.8-21C331,306,324.8,297,318.8,288
		c14.9,1.8,32.8,0.6,51.8-3.7c29-6.6,55.9-19.5,73.7-35.4c5.8-5.1,10.5-10.5,14.4-16.1c8.5,18.1,16.5,41.2,17,64.6
		C476.1,320.4,458.8,331,444.2,335.9z"/>
</g>
<g>
	<path class="st0" d="M211,244.4c-5.8-7.2-13.7-12.2-22.5-14.5c-7.6-1.7-15.5-1.2-22.8,1.4c-12.9-14.4-34.7-16.3-49.9-4.3
		c-4.3,3-7.7,7.2-9.6,12.2c-11-3.8-23.2-1.8-32.5,5.2c-8.7,7.7-13,19.3-11.5,30.9c-5.2,0.9-10,3.3-13.8,7
		c-14.6,12.5-17.1,34.3-5.5,49.7c-4,6.7-6.1,14.3-5.9,22.1c0.5,9.2,3.9,17.9,9.7,25l20.5,25.1c2.1,2.6,52.4,63.1,123.8,73
		c13.7,1.8,27.6,0,40.3-5.5c6.9-2.9,13.3-6.9,19-11.6c5.8-4.7,10.8-10.3,15.1-16.4c7.8-11.4,12.4-24.6,13.3-38.4
		c4.4-71.9-45-133.1-47.2-135.7L211,244.4z M221.3,277.9c0.5,0.6,48.2,59.9,44.2,126.5c-0.7,11.4-4.5,22.3-11,31.7
		c-7.2,10.3-17,18.3-28.5,23.3c-10.4,4.4-22,6-33.2,4.5c-66.1-9.2-114.8-67.6-115.3-68.2l-20.5-25.1c-4-4.9-6.5-10.9-6.8-17.2
		c-0.1-3.3,0.6-6.5,1.8-9.6c33,39.1,72.1,72.5,116,98.8c2.9,1.9,6.9,1.1,8.8-1.8c0.1-0.2,0.2-0.3,0.3-0.5c1.8-3.2,0.8-7.2-2.3-9.1
		C129.4,403.9,89.2,368.8,56,327.4c-9.6-11.7-9.2-26.8,0.9-35c2.5-2.7,5.9-4.3,9.6-4.3c23.9,33.8,50.6,65.6,79.6,95.1
		c2.2,2.6,6.1,2.9,8.7,0.7c0.2-0.2,0.5-0.5,0.7-0.7c2.5-2.6,2.5-6.7,0.1-9.4c-28.9-29.4-55.5-61.1-79.2-94.9
		c-1.1-5-2.6-17.5,5.9-24.5c8.5-7,20.4-3,25.1-1c32.9,34.9,62.4,72.7,88.1,113.1c1.6,3.1,5.4,4.2,8.4,2.7c0.5-0.3,1-0.6,1.4-1
		c2.6-2.1,3.2-5.8,1.4-8.7c-25.8-40.7-55.5-78.7-88.5-113.8c0.7-3.6,3-6.6,6.1-8.5c10.1-8.2,24.9-5.7,34.5,6.1
		c31.4,37.5,56.4,79.9,74,125.4c1.3,3.4,5.2,5.1,8.6,3.8c3.3-1.2,5.1-4.7,4-8.1c-0.1-0.2-0.1-0.3-0.2-0.5
		c-17-43.8-40.5-84.7-69.7-121.4c3.2-0.6,6.5-0.5,9.7,0.2c6.1,1.6,11.6,5.1,15.6,10.1L221.3,277.9z"/>
</g>
</svg>
