<?xml version="1.0"?>
<svg xmlns="http://www.w3.org/2000/svg" xmlns:xlink="http://www.w3.org/1999/xlink" xmlns:svgjs="http://svgjs.com/svgjs" version="1.1" width="512" height="512" x="0" y="0" viewBox="0 0 511.987 511.987" style="enable-background:new 0 0 512 512" xml:space="preserve"><g><path xmlns="http://www.w3.org/2000/svg" id="XMLID_119_" d="m508.103 136.178c-42.973-73.809-104.813-98.192-150.162-105.486-10.111-12.404-24.074-21.652-40.348-25.863-39.643-10.259-82.174-4-117.178 17.13-11.904-2.935-24.439-3.249-36.655-.727-19.361 3.996-37.831 11.038-54.894 20.93-4.778 2.77-6.405 8.889-3.636 13.667 2.771 4.777 8.891 6.406 13.667 3.636 15.199-8.812 31.653-15.085 48.905-18.646 17.475-3.607 35.08.152 49.563 10.587 14.481 10.435 23.618 25.943 25.729 43.667l15.96 134.091c.98 8.241-1.822 16.333-7.69 22.201s-13.957 8.673-22.2 7.689l-134.091-15.959c-17.724-2.11-33.232-11.247-43.667-25.728s-14.194-32.083-10.587-49.563c3.566-17.28 9.854-33.761 18.689-48.983 2.772-4.776 1.148-10.896-3.629-13.669-4.776-2.772-10.895-1.147-13.668 3.629-9.919 17.088-16.978 35.587-20.98 54.981-2.521 12.216-2.208 24.75.728 36.654-21.131 35.004-27.388 77.533-17.13 117.178 4.211 16.274 13.46 30.237 25.864 40.349 7.293 45.349 31.677 107.187 105.486 150.161 4.461 2.597 9.323 3.883 14.165 3.883 5.874 0 11.715-1.894 16.76-5.638 9.158-6.797 13.216-17.886 10.588-28.939-9.184-38.641-4.78-75.841.53-100.245.047-.215.074-.429.106-.643 4.847-1.756 9.528-4.049 13.971-6.878 12.912-8.221 22.622-20.125 28.078-34.426l21.744-56.989c8.746-1.851 16.856-6.193 23.385-12.722 6.528-6.529 10.869-14.639 12.72-23.385l56.99-21.745c14.302-5.457 26.206-15.166 34.427-28.078 2.828-4.442 5.115-9.124 6.871-13.97.217-.033.434-.06.651-.108 24.402-5.312 61.603-9.714 100.244-.53 2.226.529 4.452.787 6.645.787 8.7 0 16.867-4.061 22.296-11.376 6.829-9.203 7.501-21.052 1.753-30.924zm-349.869 345.857c1.092 4.596-1.77 7.304-3.051 8.254-1.017.753-4.663 3.022-8.942.531-58.646-34.145-82.931-81.235-92.522-119.954 6.348 2.235 13.058 3.67 20.007 4.174l75.5 5.477c1.745.127 3.485.189 5.218.189.891 0 1.779-.019 2.665-.052-4.939 26.233-7.993 63.02 1.125 101.381zm43.457-153.948c-8.036 21.06-28.539 34.112-51.019 32.482l-75.5-5.477c-24.372-1.768-44.86-18.851-50.981-42.508-7.633-29.502-4.74-60.842 7.777-88.34 1.013 1.637 2.08 3.245 3.211 4.815 13.549 18.802 34.518 31.156 57.53 33.896l128.02 15.237zm126.396-126.396-49.896 19.038-15.237-128.02c-2.739-23.012-15.094-43.98-33.895-57.529-1.571-1.132-3.179-2.199-4.816-3.212 27.5-12.517 58.84-15.41 88.341-7.777 23.657 6.121 40.74 26.609 42.509 50.982l5.477 75.5c1.629 22.48-11.424 42.983-32.483 51.018zm162.202-46.507c-.951 1.281-3.66 4.145-8.255 3.051-38.362-9.118-75.154-6.063-101.388-1.124.098-2.612.062-5.242-.13-7.885l-5.477-75.5c-.504-6.949-1.939-13.659-4.175-20.008 38.72 9.591 85.81 33.877 119.955 92.523 2.491 4.278.223 7.926-.53 8.943z" fill="#ffffff" data-original="#000000"/><path xmlns="http://www.w3.org/2000/svg" id="XMLID_123_" d="m78.23 88.231c2.63 0 5.21-1.07 7.07-2.93s2.93-4.44 2.93-7.07-1.069-5.21-2.93-7.08c-1.86-1.86-4.44-2.92-7.07-2.92-2.64 0-5.21 1.06-7.08 2.92-1.859 1.87-2.92 4.44-2.92 7.08 0 2.63 1.061 5.21 2.92 7.07 1.87 1.86 4.44 2.93 7.08 2.93z" fill="#ffffff" data-original="#000000"/></g></svg>
