<?xml version="1.0" encoding="utf-8"?>
<!-- Generator: Adobe Illustrator 26.0.3, SVG Export Plug-In . SVG Version: 6.00 Build 0)  -->
<svg version="1.1" id="Layer_1" xmlns:svgjs="http://svgjs.com/svgjs"
	 xmlns="http://www.w3.org/2000/svg" xmlns:xlink="http://www.w3.org/1999/xlink" x="0px" y="0px" viewBox="0 0 512 512"
	 style="enable-background:new 0 0 512 512;" xml:space="preserve">
<style type="text/css">
	.st0{fill:#FFFFFF;}
</style>
<g>
	<path class="st0" d="M364.5,211.1l26.2-1.7c0,0,0.1,0,0.1,0c18.7-1.6,35.4-11.4,46-26.8l20.7-30.4c18-26.5,25-58.4,19.7-90
		c-1.1-6.2-4.2-11.9-8.9-16.1c-4.7-4.2-10.8-6.6-17-6.9c-32-1.5-62.9,9.2-87,30.3l-27.7,24.2c-14.1,12.3-21.8,30.1-21.1,48.9
		c0,0,0,0.1,0,0.1L317,169c0.6,10.2-3.2,20.3-10.3,27.6L90.4,418.8c-5.8,6-8.8,14.3-8.4,23.3c0.4,9.9,5,19.7,12.2,26.1
		c6.5,5.8,15.5,9.1,24.5,9.1c1,0,1.9,0,2.9-0.1c9-0.7,16.9-4.7,22.2-11.2l194.7-241.4C344.8,216.7,354.3,211.8,364.5,211.1z
		 M327.9,216.2L133.3,457.6c-3,3.6-7.5,5.9-12.9,6.3c-6.3,0.5-12.8-1.6-17.4-5.6c-4.6-4-7.4-10.2-7.7-16.6
		c-0.2-5.3,1.5-10.1,4.7-13.5l216.3-222.2c9.7-10,14.8-23.8,14-37.7l-1.5-26.1c-0.5-14.7,5.5-28.6,16.6-38.3l27.7-24.2
		c21.5-18.8,49-28.4,77.5-27c3.2,0.2,6.4,1.4,8.8,3.6c2.4,2.2,4.1,5.1,4.6,8.3c4.8,28.1-1.5,56.6-17.5,80.2l-20.7,30.4
		c-8.3,12.1-21.4,19.8-36,21l-26.1,1.7C349.8,198.7,336.7,205.4,327.9,216.2z"/>
	<path class="st0" d="M466.6,417.2L321.6,285c-2.7-2.5-7-2.3-9.4,0.4c-2.5,2.7-2.3,7,0.4,9.4l145,132.1c3.5,3.2,5.4,7.9,5.5,13.2
		c0.1,6.4-2.4,12.7-6.7,17c-4.3,4.3-10.7,6.8-17,6.7c-5.3-0.1-10-2.1-13.2-5.5L297,316.6c-2.5-2.7-6.7-2.9-9.4-0.4
		c-2.7,2.5-2.9,6.7-0.4,9.4l129.3,141.9c5.7,6.1,13.8,9.6,22.8,9.8c0.2,0,0.5,0,0.7,0c9.7,0,19.4-3.9,26-10.6
		c6.8-6.8,10.8-16.8,10.6-26.7C476.3,431,472.8,422.9,466.6,417.2z"/>
	<path class="st0" d="M113.7,209.8c11.1,10.2,25.4,16,40.5,16.4c0,0,0.1,0,0.1,0l26.3,0.1c10.2,0,20.1,4.4,27,11.9l11.6,12.7
		c1.3,1.4,3.1,2.2,4.9,2.2c1.6,0,3.2-0.6,4.5-1.7c2.7-2.5,2.9-6.7,0.4-9.4l-11.6-12.7c-9.4-10.3-22.8-16.2-36.8-16.3l-26.2-0.1
		c-11.6-0.3-22.8-4.8-31.4-12.6l-76.1-90.5c-0.8-0.9-0.7-2.3,0.1-3.1c0.6-0.6,1.3-0.7,1.6-0.7c0.4,0,1,0.1,1.6,0.7l69.3,69.3
		c6.8,6.8,18,6.8,24.8,0l8.1-8.1v0l14.5-14.5c0,0,0,0,0,0l0,0l8.1-8.1c6.8-6.8,6.8-18,0-24.8l-69.3-69.3c-0.9-0.9-0.9-2.4,0-3.3
		c0.9-0.9,2.2-0.9,3.1-0.1l90.5,76.1c7.8,8.6,12.3,19.7,12.6,31.4l0.1,26.2c0,14,6,27.4,16.3,36.8l12.4,11.3c2.7,2.5,7,2.3,9.4-0.4
		c2.5-2.7,2.3-7-0.4-9.4l-12.4-11.3c-7.5-6.9-11.9-16.8-11.9-27l-0.1-26.3c0,0,0-0.1,0-0.1c-0.4-15-6.2-29.4-16.4-40.5
		c-0.2-0.2-0.4-0.4-0.6-0.6l-90.8-76.4c-6.3-5.3-15.4-4.9-21.2,0.9c-6.1,6.1-6.1,16.1,0,22.2l69.3,69.3c1.6,1.6,1.6,4.3,0,5.9
		l-3.4,3.4L85.1,62c-2.6-2.6-6.8-2.6-9.5,0c-2.6,2.6-2.6,6.8,0,9.5l77.2,77.2l-5,5L70.7,76.5c-2.6-2.6-6.8-2.6-9.5,0
		c-2.6,2.6-2.6,6.8,0,9.5l77.2,77.2l-3.4,3.4c-1.6,1.6-4.3,1.6-5.9,0L59.8,97.3c-3-3-6.9-4.6-11.1-4.6s-8.1,1.6-11.1,4.6
		c-5.8,5.8-6.2,14.9-0.9,21.2l76.4,90.8C113.3,209.5,113.5,209.7,113.7,209.8z"/>
</g>
</svg>
