<?xml version="1.0" encoding="utf-8"?>
<!-- Generator: Adobe Illustrator 26.0.3, SVG Export Plug-In . SVG Version: 6.00 Build 0)  -->
<svg version="1.1" id="Layer_1" xmlns:svgjs="http://svgjs.com/svgjs"
	 xmlns="http://www.w3.org/2000/svg" xmlns:xlink="http://www.w3.org/1999/xlink" x="0px" y="0px" viewBox="0 0 512 512"
	 style="enable-background:new 0 0 512 512;" xml:space="preserve">
<style type="text/css">
	.st0{fill:#1D1D1D;}
</style>
<g>
	<path class="st0" d="M467.1,227.1L467.1,227.1L285.9,45.9c-7.7-7.7-18-12-28.9-12s-21.2,4.3-28.9,12L47,227
		c-0.1,0.1-0.1,0.1-0.2,0.2C31,243.1,31,269,46.9,284.9c7.3,7.3,16.9,11.5,27.1,11.9c0.4,0,0.8,0.1,1.3,0.1h7.2v133.3
		c0,26.4,21.5,47.8,47.9,47.8h70.9c7.2,0,13-5.8,13-13V360.5c0-12,9.8-21.8,21.8-21.8h41.8c12,0,21.8,9.8,21.8,21.8V465
		c0,7.2,5.8,13,13,13h70.9c26.4,0,47.9-21.5,47.9-47.8V296.9h6.7c10.9,0,21.2-4.3,28.9-12C483,269,483,243.1,467.1,227.1z
		 M448.6,266.5c-2.8,2.8-6.5,4.4-10.5,4.4h-19.7c-7.2,0-13,5.8-13,13v146.3c0,12-9.8,21.8-21.8,21.8h-57.9v-91.5
		c0-26.4-21.5-47.9-47.9-47.9H236c-26.4,0-47.9,21.5-47.9,47.9V452h-57.9c-12,0-21.8-9.8-21.8-21.8V283.9c0-7.2-5.8-13-13-13H76.1
		c-0.2,0-0.4,0-0.6,0c-3.9-0.1-7.5-1.6-10.2-4.3c-5.8-5.8-5.8-15.2,0-21l0,0l0,0L246.5,64.3c2.8-2.8,6.5-4.4,10.5-4.4
		s7.7,1.5,10.5,4.4l181.1,181.1l0.1,0.1C454.4,251.3,454.4,260.7,448.6,266.5z"/>
</g>
</svg>
