<?xml version="1.0" encoding="UTF-8"?>
<svg xmlns="http://www.w3.org/2000/svg" id="Layer_1" data-name="Layer 1" viewBox="0 0 64 64" width="512" height="512"><circle cx="14" cy="27" r="1"/><path d="M33,13.12a6.437,6.437,0,0,0-1.243-3.841,6.265,6.265,0,0,0-2.794-2.015A5.516,5.516,0,0,0,23.56,2a3.994,3.994,0,0,0-2.277.5A5.275,5.275,0,0,0,17,0a5.275,5.275,0,0,0-4.283,2.5A3.994,3.994,0,0,0,10.44,2a5.516,5.516,0,0,0-5.4,5.264A6.266,6.266,0,0,0,2.244,9.277,6.441,6.441,0,0,0,1,13.12V18c0,.5.085,12.354,7.458,20.32a11.507,11.507,0,0,0,5.221,3.213A12.242,12.242,0,0,0,17,42a12.1,12.1,0,0,0,3.329-.47,11.5,11.5,0,0,0,5.215-3.211C32.915,30.354,33,18.5,33,18ZM31,18c0,.115-.094,11.581-6.923,18.96a9.48,9.48,0,0,1-4.3,2.649,10.1,10.1,0,0,1-5.546,0,9.482,9.482,0,0,1-4.3-2.65C3.094,29.58,3,18.114,3,18V13.12a4.452,4.452,0,0,1,.856-2.659,3.759,3.759,0,0,1,1.118-.946,69.984,69.984,0,0,0,4.085,22.6.957.957,0,0,0,1.279.6,1.006,1.006,0,0,0,.6-1.28A67.764,67.764,0,0,1,7,8c0-2.28,1.479-4,3.44-4a1.985,1.985,0,0,1,1.523.411A115.916,115.916,0,0,0,12.17,23.1a.93.93,0,0,0,1.09.9,1.02,1.02,0,0,0,.9-1.09,113.134,113.134,0,0,1-.181-18.62C14.336,3.6,15.344,2,17,2s2.665,1.6,3.021,2.286a112.347,112.347,0,0,1-.509,21.588A.937.937,0,0,0,20.505,27a1,1,0,0,0,.991-.874A115.117,115.117,0,0,0,22.037,4.41,1.988,1.988,0,0,1,23.56,4C25.521,4,27,5.72,27,8a67.39,67.39,0,0,1-3.342,21.689,1,1,0,0,0,.64,1.261.96.96,0,0,0,1.261-.639,69.965,69.965,0,0,0,3.466-20.8,3.744,3.744,0,0,1,1.12.948A4.448,4.448,0,0,1,31,13.12Z"/><circle cx="50" cy="37" r="1"/><path d="M55.542,25.68a11.507,11.507,0,0,0-5.221-3.213,12.082,12.082,0,0,0-6.65,0,11.5,11.5,0,0,0-5.215,3.211C31.085,33.646,31,45.5,31,46v4.88a6.437,6.437,0,0,0,1.243,3.841,6.265,6.265,0,0,0,2.794,2.015A5.516,5.516,0,0,0,40.44,62a3.994,3.994,0,0,0,2.277-.5,4.917,4.917,0,0,0,8.566,0,3.994,3.994,0,0,0,2.277.5,5.516,5.516,0,0,0,5.4-5.264,6.266,6.266,0,0,0,2.793-2.013A6.441,6.441,0,0,0,63,50.88V46C63,45.5,62.915,33.646,55.542,25.68ZM61,50.88a4.452,4.452,0,0,1-.856,2.659,3.759,3.759,0,0,1-1.118.946,69.984,69.984,0,0,0-4.085-22.6,1,1,0,1,0-1.882.676A67.764,67.764,0,0,1,57,56c0,2.28-1.479,4-3.44,4a1.985,1.985,0,0,1-1.523-.411,115.916,115.916,0,0,0-.207-18.684.987.987,0,0,0-1.09-.9,1,1,0,0,0-.9,1.09,113.134,113.134,0,0,1,.181,18.62C49.664,60.4,48.656,62,47,62s-2.665-1.6-3.021-2.286a112.347,112.347,0,0,1,.509-21.588,1,1,0,0,0-1.984-.252,115.117,115.117,0,0,0-.541,21.716A1.988,1.988,0,0,1,40.44,60C38.479,60,37,58.28,37,56a67.39,67.39,0,0,1,3.342-21.689,1,1,0,0,0-1.9-.622,69.965,69.965,0,0,0-3.466,20.8,3.744,3.744,0,0,1-1.12-.948A4.448,4.448,0,0,1,33,50.88V46c0-.115.094-11.581,6.923-18.96a9.48,9.48,0,0,1,4.3-2.649,10.081,10.081,0,0,1,5.546,0,9.482,9.482,0,0,1,4.3,2.65C60.906,34.42,61,45.886,61,46Z"/></svg>
