<?xml version="1.0" encoding="utf-8"?>
<!-- Generator: Adobe Illustrator 26.0.3, SVG Export Plug-In . SVG Version: 6.00 Build 0)  -->
<svg version="1.1" id="Layer_1" xmlns:svgjs="http://svgjs.com/svgjs"
	 xmlns="http://www.w3.org/2000/svg" xmlns:xlink="http://www.w3.org/1999/xlink" x="0px" y="0px" viewBox="0 0 512 512"
	 style="enable-background:new 0 0 512 512;" xml:space="preserve">
<style type="text/css">
	.st0{fill:#FFFFFF;}
</style>
<g>
	<path class="st0" d="M345.6,75.1c-10-12.4-23.7-21.2-39.1-25.1c-13.2-2.9-26.9-2.1-39.6,2.4c-22.4-24.9-60.2-28.2-86.5-7.5
		c-7.5,5.2-13.3,12.5-16.6,21.1c-19.1-6.6-40.2-3.2-56.4,9c-15.1,13.4-22.6,33.5-19.9,53.5c-9,1.6-17.3,5.8-23.9,12.2
		C38.2,162.3,34,200.1,54,226.9c-6.9,11.6-10.5,24.8-10.2,38.3c0.9,15.9,6.8,31,16.9,43.3l35.6,43.5c3.6,4.5,90.8,109.4,214.6,126.5
		c23.7,3.2,47.9,0,69.9-9.5c11.9-5.1,23-11.9,33-20.1c10-8.2,18.8-17.8,26.2-28.5c13.6-19.7,21.5-42.7,23-66.6
		c7.6-124.7-78.1-230.8-81.8-235.3L345.6,75.1z M363.4,133.2c0.8,1,83.6,103.8,76.6,219.3c-1.2,19.7-7.8,38.7-19,54.9
		c-12.4,17.8-29.5,31.8-49.4,40.4c-18.1,7.7-38.1,10.4-57.6,7.8c-114.7-15.9-199.1-117.3-200-118.3l-35.6-43.5
		c-7-8.5-11.2-18.9-11.8-29.9c-0.1-5.7,1-11.3,3.1-16.6c57.2,67.8,125.1,125.8,201.2,171.4c5.1,3.3,11.9,1.9,15.3-3.1
		c0.2-0.3,0.4-0.6,0.5-0.8c3.2-5.5,1.4-12.5-4-15.8c-78.7-47.4-148.4-108.3-205.9-180c-16.6-20.3-16-46.4,1.5-60.7
		c4.3-4.7,10.2-7.4,16.6-7.4c41.5,58.6,87.7,113.7,138.1,164.9c3.8,4.5,10.6,5.1,15.1,1.2c0.4-0.4,0.8-0.8,1.2-1.2
		c4.4-4.5,4.4-11.7,0.1-16.3c-50.2-51-96.2-106-137.4-164.5c-1.9-8.7-4.5-30.3,10.2-42.4s35.4-5.2,43.6-1.7
		C222.8,151.4,274,217,318.5,287.1c2.7,5.3,9.3,7.3,14.5,4.6c0.9-0.5,1.8-1.1,2.5-1.8c4.5-3.7,5.5-10.1,2.5-15
		c-44.8-70.5-96.2-136.5-153.5-197.3c1.3-6.2,5.2-11.5,10.6-14.8c17.5-14.3,43.2-9.8,59.8,10.5c54.4,65,97.8,138.5,128.4,217.5
		c2.3,5.9,9,8.9,14.9,6.6c5.8-2,8.9-8.2,6.9-14c-0.1-0.3-0.2-0.6-0.3-0.9C375.3,206.6,334.6,135.6,283.9,72c5.6-1,11.3-0.9,16.9,0.3
		c10.6,2.8,20.1,8.9,27,17.5L363.4,133.2z"/>
</g>
</svg>
