<?xml version="1.0" encoding="utf-8"?>
<!-- Generator: Adobe Illustrator 26.0.3, SVG Export Plug-In . SVG Version: 6.00 Build 0)  -->
<svg version="1.1" id="Layer_1" xmlns:svgjs="http://svgjs.com/svgjs"
	 xmlns="http://www.w3.org/2000/svg" xmlns:xlink="http://www.w3.org/1999/xlink" x="0px" y="0px" viewBox="0 0 512 512"
	 style="enable-background:new 0 0 512 512;" xml:space="preserve">
<style type="text/css">
	.st0{fill:#FFFFFF;}
</style>
<g>
	<path class="st0" d="M255.4,14c-92,0-166.8,74.8-166.8,166.8c0,115.6,167,313.2,167,313.2s166.7-203.2,166.7-313.2
		C422.3,88.8,347.4,14,255.4,14z M305.7,229.7c-13.9,13.9-32.1,20.8-50.3,20.8c-18.2,0-36.5-6.9-50.3-20.8
		c-27.8-27.8-27.8-72.9,0-100.7c13.4-13.4,31.3-20.9,50.3-20.9s36.9,7.4,50.3,20.9C333.5,156.8,333.5,201.9,305.7,229.7z"/>
</g>
</svg>
