<?xml version="1.0" encoding="utf-8"?>
<!-- Generator: Adobe Illustrator 26.0.3, SVG Export Plug-In . SVG Version: 6.00 Build 0)  -->
<svg version="1.1" id="Layer_1" xmlns:svgjs="http://svgjs.com/svgjs"
	 xmlns="http://www.w3.org/2000/svg" xmlns:xlink="http://www.w3.org/1999/xlink" x="0px" y="0px" viewBox="0 0 512 512"
	 style="enable-background:new 0 0 512 512;" xml:space="preserve">
<style type="text/css">
	.st0{fill:#FFFFFF;}
</style>
<g>
	<g>
		<g>
			<path class="st0" d="M459.4,460.3h-7.5V227c16.9-13,28.1-35.7,28.1-61.4c0-1.4-0.3-2.7-0.9-3.9L427.1,52.4
				c-3.7-7.7-10.5-12.4-17.9-12.4H102.8c-7.4,0-14.2,4.8-17.9,12.4L32.9,161.6c-0.6,1.2-0.9,2.5-0.9,3.9c0,25.8,11.2,48.4,28.1,61.4
				v233.3h-7.5c-3.6,0-6.6,3.5-6.6,7.9s2.9,7.9,6.6,7.9h406.8c3.6,0,6.6-3.5,6.6-7.9C466,463.8,463,460.3,459.4,460.3z M45.6,173.4
				h21c3.6,0,6.6-3.5,6.6-7.9c0-4.3-2.9-7.9-6.6-7.9H49.9l46.5-97.4c1.3-2.8,3.8-4.5,6.5-4.5h306.4c2.7,0,5.2,1.7,6.5,4.5l46.5,97.4
				h-16.7c-3.6,0-6.6,3.5-6.6,7.9c0,4.3,2.9,7.9,6.6,7.9h21c-3.2,27.9-23.2,49.4-47.3,49.4c-24.1,0-44.1-21.5-47.3-49.4h45.6
				c3.6,0,6.6-3.5,6.6-7.9c0-4.3-2.9-7.9-6.6-7.9H94.7c-3.6,0-6.6,3.5-6.6,7.9c0,4.3,2.9,7.9,6.6,7.9h45.6
				c-3.2,27.9-23.2,49.4-47.3,49.4C68.8,222.8,48.8,201.3,45.6,173.4z M357.7,173.4c-3.2,27.9-23.2,49.4-47.3,49.4
				c-24.1,0-44.1-21.5-47.3-49.4H357.7z M249,173.4c-3.2,27.9-23.2,49.4-47.3,49.4s-44.1-21.5-47.3-49.4H249z M403.7,460.3h-71V434
				h71V460.3z M403.7,418.2h-71v-144h71V418.2z M438.8,460.3h-21.9V266.4c0-4.3-2.9-7.9-6.6-7.9h-84.2c-3.6,0-6.6,3.5-6.6,7.9v193.9
				H73.2V234.6c6.2,2.6,12.8,4,19.7,4c23.7,0,44.3-16.3,54.4-40.1c10.1,23.7,30.7,40.1,54.4,40.1s44.3-16.3,54.4-40.1
				c10.1,23.7,30.7,40.1,54.4,40.1s44.3-16.3,54.4-40.1c10.1,23.7,30.7,40.1,54.4,40.1c6.9,0,13.5-1.4,19.7-4V460.3z"/>
		</g>
	</g>
	<g>
		<g>
			<path class="st0" d="M291.1,258.5H101.7c-3.6,0-6.6,3.5-6.6,7.9v159.7c0,4.3,2.9,7.9,6.6,7.9h189.4c3.6,0,6.6-3.5,6.6-7.9V266.4
				C297.6,262.1,294.7,258.5,291.1,258.5z M284.5,418.2H108.3v-144h176.3V418.2z"/>
		</g>
	</g>
</g>
</svg>
